<mxfile host="app.diagrams.net" modified="2023-12-13T11:22:15.301Z" agent="Mozilla/5.0 (Windows NT 10.0; Win64; x64) AppleWebKit/537.36 (KHTML, like Gecko) Chrome/109.0.0.0 Safari/537.36 SLBrowser/9.0.0.10191 SLBChan/111" version="22.1.8" etag="8iHMlNslwyMl_NzfTBEI" type="github">
  <diagram name="第 1 页" id="98NZelkwkcNiqclcnh58">
    <mxGraphModel>
      <root>
        <mxCell id="0" />
        <mxCell id="1" parent="0" />
      </root>
    </mxGraphModel>
  </diagram>
</mxfile>
